<!--?xml version="1.0" standalone="no"?-->
              <svg id="sw-js-blob-svg" viewBox="0 0 100 100" xmlns="http://www.w3.org/2000/svg" version="1.1">
                    <defs> 
                        <linearGradient id="sw-gradient" x1="0" x2="1" y1="1" y2="0">
                            <stop id="stop1" stop-color="rgba(177.51, 148.687, 229.884, 1)" offset="0%"></stop>
                            <stop id="stop2" stop-color="rgba(0, 2.853, 161.687, 1)" offset="100%"></stop>
                        </linearGradient>
                    </defs>
                <path fill="url(#sw-gradient)" d="M21.7,-25.5C28.6,-20,35.2,-13.7,37.2,-6C39.2,1.7,36.6,10.7,32.3,19C27.9,27.4,21.8,35.1,13.6,38.7C5.4,42.2,-4.8,41.7,-12.2,37.3C-19.7,33,-24.5,25,-28,17C-31.6,9.1,-33.9,1.4,-33.9,-7.3C-34,-15.9,-31.7,-25.5,-25.6,-31.1C-19.6,-36.8,-9.8,-38.6,-1.2,-37.1C7.4,-35.7,14.7,-31,21.7,-25.5Z" width="100%" height="100%" transform="translate(50 50)" stroke-width="0" style="transition: all 0.3s ease 0s;" stroke="url(#sw-gradient)"></path>
              </svg>